<svg xmlns="http://www.w3.org/2000/svg" width="650" height="215.496" viewBox="0 0 650 215.496"><defs><style>.a{fill:#fff;fill-rule:evenodd;}</style></defs><path class="a" d="M40,16.9c0-2.414,0-3.621.654-4.543a5.485,5.485,0,0,1,2.622-1.884C44.56,10,46.24,10,49.6,10H680.4c3.36,0,5.04,0,6.324.47a5.483,5.483,0,0,1,2.622,1.884c.654.922.654,2.129.654,4.543V218.6c0,2.414,0,3.62-.654,4.543a5.482,5.482,0,0,1-2.622,1.883c-1.284.47-2.964.47-6.324.47H49.6c-3.36,0-5.04,0-6.324-.47a5.484,5.484,0,0,1-2.622-1.883C40,222.22,40,221.014,40,218.6Z" transform="translate(-40 -10)"/></svg>